<?xml version="1.0" encoding="utf-8" standalone="no"?>
<!DOCTYPE svg PUBLIC "-//W3C//DTD SVG 1.1//EN"
  "http://www.w3.org/Graphics/SVG/1.1/DTD/svg11.dtd">
<svg xmlns:xlink="http://www.w3.org/1999/xlink" width="379.822812pt" height="358.823365pt" viewBox="0 0 379.822812 358.823365" xmlns="http://www.w3.org/2000/svg" version="1.1">
 <metadata>
  <rdf:RDF xmlns:dc="http://purl.org/dc/elements/1.1/" xmlns:cc="http://creativecommons.org/ns#" xmlns:rdf="http://www.w3.org/1999/02/22-rdf-syntax-ns#">
   <cc:Work>
    <dc:type rdf:resource="http://purl.org/dc/dcmitype/StillImage"/>
    <dc:date>2026-06-05T03:04:36.927216</dc:date>
    <dc:format>image/svg+xml</dc:format>
    <dc:creator>
     <cc:Agent>
      <dc:title>Matplotlib v3.10.7, https://matplotlib.org/</dc:title>
     </cc:Agent>
    </dc:creator>
   </cc:Work>
  </rdf:RDF>
 </metadata>
 <defs>
  <style type="text/css">*{stroke-linejoin: round; stroke-linecap: butt}</style>
 </defs>
 <g id="figure_1">
  <g id="patch_1">
   <path d="M 0 358.823365 
L 379.822812 358.823365 
L 379.822812 0 
L 0 0 
z
" style="fill: #d8e4cc"/>
  </g>
  <g id="axes_1">
   <g id="patch_2">
    <path d="M 48.982813 321.267115 
L 372.622813 321.267115 
L 372.622813 22.5225 
L 48.982813 22.5225 
z
" style="fill: #f3f8ee"/>
   </g>
   <g id="matplotlib.axis_1">
    <g id="xtick_1">
     <g id="line2d_1">
      <path d="M 73.878197 321.267115 
L 73.878197 22.5225 
" clip-path="url(#p2ef85df717)" style="fill: none; stroke-dasharray: 2.96,1.28; stroke-dashoffset: 0; stroke: #6a8858; stroke-opacity: 0.25; stroke-width: 0.8"/>
     </g>
     <g id="line2d_2">
      <defs>
       <path id="m86943820c9" d="M 0 0 
L 0 3.5 
" style="stroke: #4a2810; stroke-width: 0.8"/>
      </defs>
      <g>
       <use xlink:href="#m86943820c9" x="73.878197" y="321.267115" style="fill: #4a2810; stroke: #4a2810; stroke-width: 0.8"/>
      </g>
     </g>
     <g id="text_1">
      <!-- −20 -->
      <g style="fill: #4a2810" transform="translate(63.325853 335.865553) scale(0.1 -0.1)">
       <defs>
        <path id="DejaVuSans-2212" d="M 678 2272 
L 4684 2272 
L 4684 1741 
L 678 1741 
L 678 2272 
z
" transform="scale(0.015625)"/>
        <path id="DejaVuSans-32" d="M 1228 531 
L 3431 531 
L 3431 0 
L 469 0 
L 469 531 
Q 828 903 1448 1529 
Q 2069 2156 2228 2338 
Q 2531 2678 2651 2914 
Q 2772 3150 2772 3378 
Q 2772 3750 2511 3984 
Q 2250 4219 1831 4219 
Q 1534 4219 1204 4116 
Q 875 4013 500 3803 
L 500 4441 
Q 881 4594 1212 4672 
Q 1544 4750 1819 4750 
Q 2544 4750 2975 4387 
Q 3406 4025 3406 3419 
Q 3406 3131 3298 2873 
Q 3191 2616 2906 2266 
Q 2828 2175 2409 1742 
Q 1991 1309 1228 531 
z
" transform="scale(0.015625)"/>
        <path id="DejaVuSans-30" d="M 2034 4250 
Q 1547 4250 1301 3770 
Q 1056 3291 1056 2328 
Q 1056 1369 1301 889 
Q 1547 409 2034 409 
Q 2525 409 2770 889 
Q 3016 1369 3016 2328 
Q 3016 3291 2770 3770 
Q 2525 4250 2034 4250 
z
M 2034 4750 
Q 2819 4750 3233 4129 
Q 3647 3509 3647 2328 
Q 3647 1150 3233 529 
Q 2819 -91 2034 -91 
Q 1250 -91 836 529 
Q 422 1150 422 2328 
Q 422 3509 836 4129 
Q 1250 4750 2034 4750 
z
" transform="scale(0.015625)"/>
       </defs>
       <use xlink:href="#DejaVuSans-2212"/>
       <use xlink:href="#DejaVuSans-32" transform="translate(83.789062 0)"/>
       <use xlink:href="#DejaVuSans-30" transform="translate(147.412109 0)"/>
      </g>
     </g>
    </g>
    <g id="xtick_2">
     <g id="line2d_3">
      <path d="M 136.116659 321.267115 
L 136.116659 22.5225 
" clip-path="url(#p2ef85df717)" style="fill: none; stroke-dasharray: 2.96,1.28; stroke-dashoffset: 0; stroke: #6a8858; stroke-opacity: 0.25; stroke-width: 0.8"/>
     </g>
     <g id="line2d_4">
      <g>
       <use xlink:href="#m86943820c9" x="136.116659" y="321.267115" style="fill: #4a2810; stroke: #4a2810; stroke-width: 0.8"/>
      </g>
     </g>
     <g id="text_2">
      <!-- −15 -->
      <g style="fill: #4a2810" transform="translate(125.564315 335.865553) scale(0.1 -0.1)">
       <defs>
        <path id="DejaVuSans-31" d="M 794 531 
L 1825 531 
L 1825 4091 
L 703 3866 
L 703 4441 
L 1819 4666 
L 2450 4666 
L 2450 531 
L 3481 531 
L 3481 0 
L 794 0 
L 794 531 
z
" transform="scale(0.015625)"/>
        <path id="DejaVuSans-35" d="M 691 4666 
L 3169 4666 
L 3169 4134 
L 1269 4134 
L 1269 2991 
Q 1406 3038 1543 3061 
Q 1681 3084 1819 3084 
Q 2600 3084 3056 2656 
Q 3513 2228 3513 1497 
Q 3513 744 3044 326 
Q 2575 -91 1722 -91 
Q 1428 -91 1123 -41 
Q 819 9 494 109 
L 494 744 
Q 775 591 1075 516 
Q 1375 441 1709 441 
Q 2250 441 2565 725 
Q 2881 1009 2881 1497 
Q 2881 1984 2565 2268 
Q 2250 2553 1709 2553 
Q 1456 2553 1204 2497 
Q 953 2441 691 2322 
L 691 4666 
z
" transform="scale(0.015625)"/>
       </defs>
       <use xlink:href="#DejaVuSans-2212"/>
       <use xlink:href="#DejaVuSans-31" transform="translate(83.789062 0)"/>
       <use xlink:href="#DejaVuSans-35" transform="translate(147.412109 0)"/>
      </g>
     </g>
    </g>
    <g id="xtick_3">
     <g id="line2d_5">
      <path d="M 198.35512 321.267115 
L 198.35512 22.5225 
" clip-path="url(#p2ef85df717)" style="fill: none; stroke-dasharray: 2.96,1.28; stroke-dashoffset: 0; stroke: #6a8858; stroke-opacity: 0.25; stroke-width: 0.8"/>
     </g>
     <g id="line2d_6">
      <g>
       <use xlink:href="#m86943820c9" x="198.35512" y="321.267115" style="fill: #4a2810; stroke: #4a2810; stroke-width: 0.8"/>
      </g>
     </g>
     <g id="text_3">
      <!-- −10 -->
      <g style="fill: #4a2810" transform="translate(187.802776 335.865553) scale(0.1 -0.1)">
       <use xlink:href="#DejaVuSans-2212"/>
       <use xlink:href="#DejaVuSans-31" transform="translate(83.789062 0)"/>
       <use xlink:href="#DejaVuSans-30" transform="translate(147.412109 0)"/>
      </g>
     </g>
    </g>
    <g id="xtick_4">
     <g id="line2d_7">
      <path d="M 260.593582 321.267115 
L 260.593582 22.5225 
" clip-path="url(#p2ef85df717)" style="fill: none; stroke-dasharray: 2.96,1.28; stroke-dashoffset: 0; stroke: #6a8858; stroke-opacity: 0.25; stroke-width: 0.8"/>
     </g>
     <g id="line2d_8">
      <g>
       <use xlink:href="#m86943820c9" x="260.593582" y="321.267115" style="fill: #4a2810; stroke: #4a2810; stroke-width: 0.8"/>
      </g>
     </g>
     <g id="text_4">
      <!-- −5 -->
      <g style="fill: #4a2810" transform="translate(253.222488 335.865553) scale(0.1 -0.1)">
       <use xlink:href="#DejaVuSans-2212"/>
       <use xlink:href="#DejaVuSans-35" transform="translate(83.789062 0)"/>
      </g>
     </g>
    </g>
    <g id="xtick_5">
     <g id="line2d_9">
      <path d="M 322.832043 321.267115 
L 322.832043 22.5225 
" clip-path="url(#p2ef85df717)" style="fill: none; stroke-dasharray: 2.96,1.28; stroke-dashoffset: 0; stroke: #6a8858; stroke-opacity: 0.25; stroke-width: 0.8"/>
     </g>
     <g id="line2d_10">
      <g>
       <use xlink:href="#m86943820c9" x="322.832043" y="321.267115" style="fill: #4a2810; stroke: #4a2810; stroke-width: 0.8"/>
      </g>
     </g>
     <g id="text_5">
      <!-- 0 -->
      <g style="fill: #4a2810" transform="translate(319.650793 335.865553) scale(0.1 -0.1)">
       <use xlink:href="#DejaVuSans-30"/>
      </g>
     </g>
    </g>
    <g id="text_6">
     <!-- $\sigma$ -->
     <g style="fill: #2e1a08" transform="translate(207.902812 349.543678) scale(0.1 -0.1)">
      <defs>
       <path id="Cmmi10-be" d="M 1197 -72 
Q 913 -72 692 64 
Q 472 200 351 431 
Q 231 663 231 941 
Q 231 1238 365 1566 
Q 500 1894 733 2166 
Q 966 2438 1259 2598 
Q 1553 2759 1863 2759 
L 3475 2759 
Q 3541 2759 3587 2715 
Q 3634 2672 3634 2597 
Q 3634 2503 3567 2433 
Q 3500 2363 3406 2363 
L 2625 2363 
Q 2809 2088 2809 1697 
Q 2809 1375 2684 1062 
Q 2559 750 2337 492 
Q 2116 234 1820 81 
Q 1525 -72 1197 -72 
z
M 1203 97 
Q 1553 97 1823 370 
Q 2094 644 2237 1039 
Q 2381 1434 2381 1772 
Q 2381 2047 2229 2205 
Q 2078 2363 1806 2363 
Q 1434 2363 1173 2113 
Q 913 1863 783 1484 
Q 653 1106 653 756 
Q 653 481 798 289 
Q 944 97 1203 97 
z
" transform="scale(0.015625)"/>
      </defs>
      <use xlink:href="#Cmmi10-be" transform="translate(0 0.890625)"/>
     </g>
    </g>
   </g>
   <g id="matplotlib.axis_2">
    <g id="ytick_1">
     <g id="line2d_11">
      <path d="M 48.982813 296.371731 
L 372.622813 296.371731 
" clip-path="url(#p2ef85df717)" style="fill: none; stroke-dasharray: 2.96,1.28; stroke-dashoffset: 0; stroke: #6a8858; stroke-opacity: 0.25; stroke-width: 0.8"/>
     </g>
     <g id="line2d_12">
      <defs>
       <path id="mcc4cf84d3e" d="M 0 0 
L -3.5 0 
" style="stroke: #4a2810; stroke-width: 0.8"/>
      </defs>
      <g>
       <use xlink:href="#mcc4cf84d3e" x="48.982813" y="296.371731" style="fill: #4a2810; stroke: #4a2810; stroke-width: 0.8"/>
      </g>
     </g>
     <g id="text_7">
      <!-- −10 -->
      <g style="fill: #4a2810" transform="translate(20.878125 300.17095) scale(0.1 -0.1)">
       <use xlink:href="#DejaVuSans-2212"/>
       <use xlink:href="#DejaVuSans-31" transform="translate(83.789062 0)"/>
       <use xlink:href="#DejaVuSans-30" transform="translate(147.412109 0)"/>
      </g>
     </g>
    </g>
    <g id="ytick_2">
     <g id="line2d_13">
      <path d="M 48.982813 234.133269 
L 372.622813 234.133269 
" clip-path="url(#p2ef85df717)" style="fill: none; stroke-dasharray: 2.96,1.28; stroke-dashoffset: 0; stroke: #6a8858; stroke-opacity: 0.25; stroke-width: 0.8"/>
     </g>
     <g id="line2d_14">
      <g>
       <use xlink:href="#mcc4cf84d3e" x="48.982813" y="234.133269" style="fill: #4a2810; stroke: #4a2810; stroke-width: 0.8"/>
      </g>
     </g>
     <g id="text_8">
      <!-- −5 -->
      <g style="fill: #4a2810" transform="translate(27.240625 237.932488) scale(0.1 -0.1)">
       <use xlink:href="#DejaVuSans-2212"/>
       <use xlink:href="#DejaVuSans-35" transform="translate(83.789062 0)"/>
      </g>
     </g>
    </g>
    <g id="ytick_3">
     <g id="line2d_15">
      <path d="M 48.982813 171.894808 
L 372.622813 171.894808 
" clip-path="url(#p2ef85df717)" style="fill: none; stroke-dasharray: 2.96,1.28; stroke-dashoffset: 0; stroke: #6a8858; stroke-opacity: 0.25; stroke-width: 0.8"/>
     </g>
     <g id="line2d_16">
      <g>
       <use xlink:href="#mcc4cf84d3e" x="48.982813" y="171.894808" style="fill: #4a2810; stroke: #4a2810; stroke-width: 0.8"/>
      </g>
     </g>
     <g id="text_9">
      <!-- 0 -->
      <g style="fill: #4a2810" transform="translate(35.620312 175.694026) scale(0.1 -0.1)">
       <use xlink:href="#DejaVuSans-30"/>
      </g>
     </g>
    </g>
    <g id="ytick_4">
     <g id="line2d_17">
      <path d="M 48.982813 109.656346 
L 372.622813 109.656346 
" clip-path="url(#p2ef85df717)" style="fill: none; stroke-dasharray: 2.96,1.28; stroke-dashoffset: 0; stroke: #6a8858; stroke-opacity: 0.25; stroke-width: 0.8"/>
     </g>
     <g id="line2d_18">
      <g>
       <use xlink:href="#mcc4cf84d3e" x="48.982813" y="109.656346" style="fill: #4a2810; stroke: #4a2810; stroke-width: 0.8"/>
      </g>
     </g>
     <g id="text_10">
      <!-- 5 -->
      <g style="fill: #4a2810" transform="translate(35.620312 113.455565) scale(0.1 -0.1)">
       <use xlink:href="#DejaVuSans-35"/>
      </g>
     </g>
    </g>
    <g id="ytick_5">
     <g id="line2d_19">
      <path d="M 48.982813 47.417885 
L 372.622813 47.417885 
" clip-path="url(#p2ef85df717)" style="fill: none; stroke-dasharray: 2.96,1.28; stroke-dashoffset: 0; stroke: #6a8858; stroke-opacity: 0.25; stroke-width: 0.8"/>
     </g>
     <g id="line2d_20">
      <g>
       <use xlink:href="#mcc4cf84d3e" x="48.982813" y="47.417885" style="fill: #4a2810; stroke: #4a2810; stroke-width: 0.8"/>
      </g>
     </g>
     <g id="text_11">
      <!-- 10 -->
      <g style="fill: #4a2810" transform="translate(29.257812 51.217103) scale(0.1 -0.1)">
       <use xlink:href="#DejaVuSans-31"/>
       <use xlink:href="#DejaVuSans-30" transform="translate(63.623047 0)"/>
      </g>
     </g>
    </g>
    <g id="text_12">
     <!-- $j\omega$ -->
     <g style="fill: #2e1a08" transform="translate(14.778125 177.094808) rotate(-90) scale(0.1 -0.1)">
      <defs>
       <path id="Cmmi10-6a" d="M -84 -909 
Q -84 -753 23 -639 
Q 131 -525 288 -525 
Q 391 -525 461 -589 
Q 531 -653 531 -756 
Q 531 -878 454 -976 
Q 378 -1075 263 -1106 
Q 375 -1147 488 -1147 
Q 759 -1147 959 -895 
Q 1159 -644 1241 -331 
L 1844 2075 
Q 1888 2259 1888 2388 
Q 1888 2663 1697 2663 
Q 1416 2663 1205 2408 
Q 994 2153 863 1819 
Q 850 1778 813 1778 
L 738 1778 
Q 684 1778 684 1838 
L 684 1856 
Q 828 2241 1093 2534 
Q 1359 2828 1709 2828 
Q 1975 2828 2145 2662 
Q 2316 2497 2316 2241 
Q 2316 2150 2297 2059 
L 1691 -372 
Q 1625 -631 1440 -847 
Q 1256 -1063 1000 -1188 
Q 744 -1313 475 -1313 
Q 259 -1313 87 -1209 
Q -84 -1106 -84 -909 
z
M 1941 3878 
Q 1941 4019 2050 4125 
Q 2159 4231 2297 4231 
Q 2406 4231 2476 4164 
Q 2547 4097 2547 3994 
Q 2547 3850 2433 3742 
Q 2319 3634 2181 3634 
Q 2078 3634 2009 3706 
Q 1941 3778 1941 3878 
z
" transform="scale(0.015625)"/>
       <path id="Cmmi10-21" d="M 775 -72 
Q 413 -72 252 193 
Q 91 459 91 844 
Q 91 1097 136 1339 
Q 181 1581 273 1829 
Q 366 2078 484 2295 
Q 603 2513 750 2719 
Q 778 2759 825 2759 
Q 866 2759 891 2734 
Q 916 2709 916 2675 
Q 916 2641 897 2613 
Q 313 1809 313 1131 
Q 313 838 448 627 
Q 584 416 863 416 
Q 1103 416 1308 556 
Q 1513 697 1663 916 
Q 1663 1028 1702 1265 
Q 1741 1503 1823 1689 
Q 1906 1875 2022 1875 
Q 2169 1875 2169 1703 
Q 2169 1603 2126 1451 
Q 2084 1300 2032 1169 
Q 1981 1038 1906 872 
Q 1981 416 2363 416 
Q 2584 416 2807 544 
Q 3031 672 3203 880 
Q 3375 1088 3473 1328 
Q 3572 1569 3572 1784 
Q 3572 1978 3511 2086 
Q 3450 2194 3350 2312 
Q 3250 2431 3250 2503 
Q 3250 2628 3356 2731 
Q 3463 2834 3584 2834 
Q 3741 2834 3806 2692 
Q 3872 2550 3872 2369 
Q 3872 2075 3755 1628 
Q 3638 1181 3488 884 
Q 3281 481 2970 204 
Q 2659 -72 2272 -72 
Q 2025 -72 1873 76 
Q 1722 225 1678 481 
Q 1500 228 1272 78 
Q 1044 -72 775 -72 
z
" transform="scale(0.015625)"/>
      </defs>
      <use xlink:href="#Cmmi10-6a" transform="translate(0 0.890625)"/>
      <use xlink:href="#Cmmi10-21" transform="translate(41.113281 0.890625)"/>
     </g>
    </g>
   </g>
   <g id="line2d_21">
    <path d="M 48.982813 171.894808 
L 372.622813 171.894808 
" clip-path="url(#p2ef85df717)" style="fill: none; stroke: #6a3e18; stroke-opacity: 0.7; stroke-linecap: square"/>
   </g>
   <g id="line2d_22">
    <path d="M 322.832043 321.267115 
L 322.832043 22.5225 
" clip-path="url(#p2ef85df717)" style="fill: none; stroke: #6a3e18; stroke-opacity: 0.7; stroke-linecap: square"/>
   </g>
   <g id="line2d_23">
    <path d="M 73.878897 171.894808 
L 177.905802 171.894808 
L 180.845223 169.517293 
L 181.000984 150.042122 
L 181.414507 128.575469 
L 182.390612 91.942348 
L 183.419279 50.274674 
L 184.065416 14.644337 
L 184.285499 -1 
L 184.285499 -1 
" clip-path="url(#p2ef85df717)" style="fill: none; stroke: #2e4824; stroke-width: 1.6; stroke-linecap: square"/>
   </g>
   <g id="line2d_24">
    <path d="M 273.040885 171.894808 
L 183.774943 171.894808 
L 180.845223 174.272323 
L 181.000984 193.747493 
L 181.414507 215.214146 
L 182.390612 251.847268 
L 183.419279 293.514941 
L 184.065416 329.145278 
L 184.466677 359.823365 
L 184.466677 359.823365 
" clip-path="url(#p2ef85df717)" style="fill: none; stroke: #2e4824; stroke-width: 1.6; stroke-linecap: square"/>
   </g>
   <g id="line2d_25">
    <path d="M 322.831732 171.894808 
L 300.181293 171.894808 
L 300.181293 171.894808 
" clip-path="url(#p2ef85df717)" style="fill: none; stroke: #2e4824; stroke-width: 1.6; stroke-linecap: square"/>
   </g>
   <g id="line2d_26">
    <defs>
     <path id="m042c5222aa" d="M -5.5 5.5 
L 5.5 -5.5 
M -5.5 -5.5 
L 5.5 5.5 
" style="stroke: #6a3e18; stroke-width: 3"/>
    </defs>
    <g clip-path="url(#p2ef85df717)">
     <use xlink:href="#m042c5222aa" x="322.832043" y="171.894808" style="fill: #6a3e18; stroke: #6a3e18; stroke-width: 3"/>
    </g>
   </g>
   <g id="line2d_27">
    <g clip-path="url(#p2ef85df717)">
     <use xlink:href="#m042c5222aa" x="273.041274" y="171.894808" style="fill: #6a3e18; stroke: #6a3e18; stroke-width: 3"/>
    </g>
   </g>
   <g id="line2d_28">
    <g clip-path="url(#p2ef85df717)">
     <use xlink:href="#m042c5222aa" x="73.878197" y="171.894808" style="fill: #6a3e18; stroke: #6a3e18; stroke-width: 3"/>
    </g>
   </g>
   <g id="line2d_29">
    <defs>
     <path id="ma3e478d458" d="M 0 5.5 
C 1.458617 5.5 2.857689 4.920485 3.889087 3.889087 
C 4.920485 2.857689 5.5 1.458617 5.5 0 
C 5.5 -1.458617 4.920485 -2.857689 3.889087 -3.889087 
C 2.857689 -4.920485 1.458617 -5.5 0 -5.5 
C -1.458617 -5.5 -2.857689 -4.920485 -3.889087 -3.889087 
C -4.920485 -2.857689 -5.5 -1.458617 -5.5 0 
C -5.5 1.458617 -4.920485 2.857689 -3.889087 3.889087 
C -2.857689 4.920485 -1.458617 5.5 0 5.5 
z
" style="stroke: #6a3e18; stroke-width: 2"/>
    </defs>
    <g clip-path="url(#p2ef85df717)">
     <use xlink:href="#ma3e478d458" x="297.936659" y="171.894808" style="fill-opacity: 0; stroke: #6a3e18; stroke-width: 2"/>
    </g>
   </g>
   <g id="line2d_30">
    <defs>
     <path id="m7bc8facd10" d="M 0 -8 
L -1.796112 -2.472136 
L -7.608452 -2.472136 
L -2.90617 0.944272 
L -4.702282 6.472136 
L -0 3.055728 
L 4.702282 6.472136 
L 2.90617 0.944272 
L 7.608452 -2.472136 
L 1.796112 -2.472136 
z
" style="stroke: #b07828; stroke-linejoin: bevel"/>
    </defs>
    <g clip-path="url(#p2ef85df717)">
     <use xlink:href="#m7bc8facd10" x="285.488966" y="109.656346" style="fill: #b07828; stroke: #b07828; stroke-linejoin: bevel"/>
    </g>
   </g>
   <g id="patch_3">
    <path d="M 48.982813 321.267115 
L 48.982813 22.5225 
" style="fill: none; stroke: #6a3e18; stroke-linejoin: miter; stroke-linecap: square"/>
   </g>
   <g id="patch_4">
    <path d="M 372.622813 321.267115 
L 372.622813 22.5225 
" style="fill: none; stroke: #6a3e18; stroke-linejoin: miter; stroke-linecap: square"/>
   </g>
   <g id="patch_5">
    <path d="M 48.982813 321.267115 
L 372.622813 321.267115 
" style="fill: none; stroke: #6a3e18; stroke-linejoin: miter; stroke-linecap: square"/>
   </g>
   <g id="patch_6">
    <path d="M 48.982813 22.5225 
L 372.622813 22.5225 
" style="fill: none; stroke: #6a3e18; stroke-linejoin: miter; stroke-linecap: square"/>
   </g>
   <g id="text_13">
    <!-- $s_d$ -->
    <g style="fill: #2e1a08" transform="translate(293.488966 109.656346) scale(0.1 -0.1)">
     <defs>
      <path id="Cmmi10-73" d="M 556 391 
Q 728 97 1247 97 
Q 1472 97 1675 173 
Q 1878 250 2011 403 
Q 2144 556 2144 775 
Q 2144 941 2025 1047 
Q 1906 1153 1734 1191 
L 1388 1259 
Q 1150 1319 997 1481 
Q 844 1644 844 1875 
Q 844 2159 998 2378 
Q 1153 2597 1406 2712 
Q 1659 2828 1931 2828 
Q 2222 2828 2451 2689 
Q 2681 2550 2681 2278 
Q 2681 2131 2598 2018 
Q 2516 1906 2369 1906 
Q 2284 1906 2223 1961 
Q 2163 2016 2163 2100 
Q 2163 2175 2205 2245 
Q 2247 2316 2317 2358 
Q 2388 2400 2463 2400 
Q 2406 2538 2251 2600 
Q 2097 2663 1919 2663 
Q 1756 2663 1593 2597 
Q 1431 2531 1332 2404 
Q 1234 2278 1234 2106 
Q 1234 1991 1315 1903 
Q 1397 1816 1516 1778 
L 1888 1703 
Q 2066 1666 2214 1570 
Q 2363 1475 2448 1329 
Q 2534 1184 2534 997 
Q 2534 759 2401 528 
Q 2269 297 2075 159 
Q 1734 -72 1241 -72 
Q 900 -72 615 84 
Q 331 241 331 550 
Q 331 725 432 854 
Q 534 984 709 984 
Q 813 984 883 921 
Q 953 859 953 756 
Q 953 609 843 500 
Q 734 391 588 391 
L 556 391 
z
" transform="scale(0.015625)"/>
      <path id="Cmmi10-64" d="M 1113 -72 
Q 709 -72 476 233 
Q 244 538 244 953 
Q 244 1363 456 1803 
Q 669 2244 1030 2536 
Q 1391 2828 1806 2828 
Q 1994 2828 2145 2723 
Q 2297 2619 2381 2444 
L 2741 3872 
Q 2766 3981 2772 4044 
Q 2772 4147 2356 4147 
Q 2291 4147 2291 4231 
Q 2294 4247 2305 4287 
Q 2316 4328 2333 4350 
Q 2350 4372 2381 4372 
L 3244 4441 
Q 3322 4441 3322 4359 
L 2400 678 
Q 2356 572 2356 372 
Q 2356 97 2541 97 
Q 2741 97 2845 351 
Q 2950 606 3022 941 
Q 3034 978 3072 978 
L 3150 978 
Q 3175 978 3190 956 
Q 3206 934 3206 916 
Q 3094 469 2961 198 
Q 2828 -72 2528 -72 
Q 2313 -72 2147 54 
Q 1981 181 1941 391 
Q 1528 -72 1113 -72 
z
M 1119 97 
Q 1350 97 1567 270 
Q 1784 444 1941 678 
Q 1947 684 1947 703 
L 2297 2113 
Q 2259 2338 2131 2500 
Q 2003 2663 1791 2663 
Q 1575 2663 1389 2486 
Q 1203 2309 1075 2069 
Q 950 1813 836 1366 
Q 722 919 722 672 
Q 722 450 817 273 
Q 913 97 1119 97 
z
" transform="scale(0.015625)"/>
     </defs>
     <use xlink:href="#Cmmi10-73" transform="translate(0 0.8125)"/>
     <use xlink:href="#Cmmi10-64" transform="translate(46.777344 -16.19375) scale(0.7)"/>
    </g>
   </g>
   <g id="text_14">
    <!-- Diseño lead: el cero atrae el lugar a la izquierda -->
    <g style="fill: #2e1a08" transform="translate(66.545 16.5225) scale(0.12 -0.12)">
     <defs>
      <path id="DejaVuSans-44" d="M 1259 4147 
L 1259 519 
L 2022 519 
Q 2988 519 3436 956 
Q 3884 1394 3884 2338 
Q 3884 3275 3436 3711 
Q 2988 4147 2022 4147 
L 1259 4147 
z
M 628 4666 
L 1925 4666 
Q 3281 4666 3915 4102 
Q 4550 3538 4550 2338 
Q 4550 1131 3912 565 
Q 3275 0 1925 0 
L 628 0 
L 628 4666 
z
" transform="scale(0.015625)"/>
      <path id="DejaVuSans-69" d="M 603 3500 
L 1178 3500 
L 1178 0 
L 603 0 
L 603 3500 
z
M 603 4863 
L 1178 4863 
L 1178 4134 
L 603 4134 
L 603 4863 
z
" transform="scale(0.015625)"/>
      <path id="DejaVuSans-73" d="M 2834 3397 
L 2834 2853 
Q 2591 2978 2328 3040 
Q 2066 3103 1784 3103 
Q 1356 3103 1142 2972 
Q 928 2841 928 2578 
Q 928 2378 1081 2264 
Q 1234 2150 1697 2047 
L 1894 2003 
Q 2506 1872 2764 1633 
Q 3022 1394 3022 966 
Q 3022 478 2636 193 
Q 2250 -91 1575 -91 
Q 1294 -91 989 -36 
Q 684 19 347 128 
L 347 722 
Q 666 556 975 473 
Q 1284 391 1588 391 
Q 1994 391 2212 530 
Q 2431 669 2431 922 
Q 2431 1156 2273 1281 
Q 2116 1406 1581 1522 
L 1381 1569 
Q 847 1681 609 1914 
Q 372 2147 372 2553 
Q 372 3047 722 3315 
Q 1072 3584 1716 3584 
Q 2034 3584 2315 3537 
Q 2597 3491 2834 3397 
z
" transform="scale(0.015625)"/>
      <path id="DejaVuSans-65" d="M 3597 1894 
L 3597 1613 
L 953 1613 
Q 991 1019 1311 708 
Q 1631 397 2203 397 
Q 2534 397 2845 478 
Q 3156 559 3463 722 
L 3463 178 
Q 3153 47 2828 -22 
Q 2503 -91 2169 -91 
Q 1331 -91 842 396 
Q 353 884 353 1716 
Q 353 2575 817 3079 
Q 1281 3584 2069 3584 
Q 2775 3584 3186 3129 
Q 3597 2675 3597 1894 
z
M 3022 2063 
Q 3016 2534 2758 2815 
Q 2500 3097 2075 3097 
Q 1594 3097 1305 2825 
Q 1016 2553 972 2059 
L 3022 2063 
z
" transform="scale(0.015625)"/>
      <path id="DejaVuSans-f1" d="M 3513 2113 
L 3513 0 
L 2938 0 
L 2938 2094 
Q 2938 2591 2744 2837 
Q 2550 3084 2163 3084 
Q 1697 3084 1428 2787 
Q 1159 2491 1159 1978 
L 1159 0 
L 581 0 
L 581 3500 
L 1159 3500 
L 1159 2956 
Q 1366 3272 1645 3428 
Q 1925 3584 2291 3584 
Q 2894 3584 3203 3211 
Q 3513 2838 3513 2113 
z
M 2060 4281 
L 1881 4453 
Q 1813 4516 1761 4545 
Q 1710 4575 1669 4575 
Q 1550 4575 1494 4461 
Q 1438 4347 1431 4091 
L 1041 4091 
Q 1047 4513 1206 4742 
Q 1366 4972 1650 4972 
Q 1769 4972 1869 4928 
Q 1969 4884 2085 4781 
L 2263 4609 
Q 2331 4547 2383 4517 
Q 2435 4488 2475 4488 
Q 2594 4488 2650 4602 
Q 2706 4716 2713 4972 
L 3103 4972 
Q 3097 4550 2937 4320 
Q 2778 4091 2494 4091 
Q 2375 4091 2275 4134 
Q 2175 4178 2060 4281 
z
" transform="scale(0.015625)"/>
      <path id="DejaVuSans-6f" d="M 1959 3097 
Q 1497 3097 1228 2736 
Q 959 2375 959 1747 
Q 959 1119 1226 758 
Q 1494 397 1959 397 
Q 2419 397 2687 759 
Q 2956 1122 2956 1747 
Q 2956 2369 2687 2733 
Q 2419 3097 1959 3097 
z
M 1959 3584 
Q 2709 3584 3137 3096 
Q 3566 2609 3566 1747 
Q 3566 888 3137 398 
Q 2709 -91 1959 -91 
Q 1206 -91 779 398 
Q 353 888 353 1747 
Q 353 2609 779 3096 
Q 1206 3584 1959 3584 
z
" transform="scale(0.015625)"/>
      <path id="DejaVuSans-20" transform="scale(0.015625)"/>
      <path id="DejaVuSans-6c" d="M 603 4863 
L 1178 4863 
L 1178 0 
L 603 0 
L 603 4863 
z
" transform="scale(0.015625)"/>
      <path id="DejaVuSans-61" d="M 2194 1759 
Q 1497 1759 1228 1600 
Q 959 1441 959 1056 
Q 959 750 1161 570 
Q 1363 391 1709 391 
Q 2188 391 2477 730 
Q 2766 1069 2766 1631 
L 2766 1759 
L 2194 1759 
z
M 3341 1997 
L 3341 0 
L 2766 0 
L 2766 531 
Q 2569 213 2275 61 
Q 1981 -91 1556 -91 
Q 1019 -91 701 211 
Q 384 513 384 1019 
Q 384 1609 779 1909 
Q 1175 2209 1959 2209 
L 2766 2209 
L 2766 2266 
Q 2766 2663 2505 2880 
Q 2244 3097 1772 3097 
Q 1472 3097 1187 3025 
Q 903 2953 641 2809 
L 641 3341 
Q 956 3463 1253 3523 
Q 1550 3584 1831 3584 
Q 2591 3584 2966 3190 
Q 3341 2797 3341 1997 
z
" transform="scale(0.015625)"/>
      <path id="DejaVuSans-64" d="M 2906 2969 
L 2906 4863 
L 3481 4863 
L 3481 0 
L 2906 0 
L 2906 525 
Q 2725 213 2448 61 
Q 2172 -91 1784 -91 
Q 1150 -91 751 415 
Q 353 922 353 1747 
Q 353 2572 751 3078 
Q 1150 3584 1784 3584 
Q 2172 3584 2448 3432 
Q 2725 3281 2906 2969 
z
M 947 1747 
Q 947 1113 1208 752 
Q 1469 391 1925 391 
Q 2381 391 2643 752 
Q 2906 1113 2906 1747 
Q 2906 2381 2643 2742 
Q 2381 3103 1925 3103 
Q 1469 3103 1208 2742 
Q 947 2381 947 1747 
z
" transform="scale(0.015625)"/>
      <path id="DejaVuSans-3a" d="M 750 794 
L 1409 794 
L 1409 0 
L 750 0 
L 750 794 
z
M 750 3309 
L 1409 3309 
L 1409 2516 
L 750 2516 
L 750 3309 
z
" transform="scale(0.015625)"/>
      <path id="DejaVuSans-63" d="M 3122 3366 
L 3122 2828 
Q 2878 2963 2633 3030 
Q 2388 3097 2138 3097 
Q 1578 3097 1268 2742 
Q 959 2388 959 1747 
Q 959 1106 1268 751 
Q 1578 397 2138 397 
Q 2388 397 2633 464 
Q 2878 531 3122 666 
L 3122 134 
Q 2881 22 2623 -34 
Q 2366 -91 2075 -91 
Q 1284 -91 818 406 
Q 353 903 353 1747 
Q 353 2603 823 3093 
Q 1294 3584 2113 3584 
Q 2378 3584 2631 3529 
Q 2884 3475 3122 3366 
z
" transform="scale(0.015625)"/>
      <path id="DejaVuSans-72" d="M 2631 2963 
Q 2534 3019 2420 3045 
Q 2306 3072 2169 3072 
Q 1681 3072 1420 2755 
Q 1159 2438 1159 1844 
L 1159 0 
L 581 0 
L 581 3500 
L 1159 3500 
L 1159 2956 
Q 1341 3275 1631 3429 
Q 1922 3584 2338 3584 
Q 2397 3584 2469 3576 
Q 2541 3569 2628 3553 
L 2631 2963 
z
" transform="scale(0.015625)"/>
      <path id="DejaVuSans-74" d="M 1172 4494 
L 1172 3500 
L 2356 3500 
L 2356 3053 
L 1172 3053 
L 1172 1153 
Q 1172 725 1289 603 
Q 1406 481 1766 481 
L 2356 481 
L 2356 0 
L 1766 0 
Q 1100 0 847 248 
Q 594 497 594 1153 
L 594 3053 
L 172 3053 
L 172 3500 
L 594 3500 
L 594 4494 
L 1172 4494 
z
" transform="scale(0.015625)"/>
      <path id="DejaVuSans-75" d="M 544 1381 
L 544 3500 
L 1119 3500 
L 1119 1403 
Q 1119 906 1312 657 
Q 1506 409 1894 409 
Q 2359 409 2629 706 
Q 2900 1003 2900 1516 
L 2900 3500 
L 3475 3500 
L 3475 0 
L 2900 0 
L 2900 538 
Q 2691 219 2414 64 
Q 2138 -91 1772 -91 
Q 1169 -91 856 284 
Q 544 659 544 1381 
z
M 1991 3584 
L 1991 3584 
z
" transform="scale(0.015625)"/>
      <path id="DejaVuSans-67" d="M 2906 1791 
Q 2906 2416 2648 2759 
Q 2391 3103 1925 3103 
Q 1463 3103 1205 2759 
Q 947 2416 947 1791 
Q 947 1169 1205 825 
Q 1463 481 1925 481 
Q 2391 481 2648 825 
Q 2906 1169 2906 1791 
z
M 3481 434 
Q 3481 -459 3084 -895 
Q 2688 -1331 1869 -1331 
Q 1566 -1331 1297 -1286 
Q 1028 -1241 775 -1147 
L 775 -588 
Q 1028 -725 1275 -790 
Q 1522 -856 1778 -856 
Q 2344 -856 2625 -561 
Q 2906 -266 2906 331 
L 2906 616 
Q 2728 306 2450 153 
Q 2172 0 1784 0 
Q 1141 0 747 490 
Q 353 981 353 1791 
Q 353 2603 747 3093 
Q 1141 3584 1784 3584 
Q 2172 3584 2450 3431 
Q 2728 3278 2906 2969 
L 2906 3500 
L 3481 3500 
L 3481 434 
z
" transform="scale(0.015625)"/>
      <path id="DejaVuSans-7a" d="M 353 3500 
L 3084 3500 
L 3084 2975 
L 922 459 
L 3084 459 
L 3084 0 
L 275 0 
L 275 525 
L 2438 3041 
L 353 3041 
L 353 3500 
z
" transform="scale(0.015625)"/>
      <path id="DejaVuSans-71" d="M 947 1747 
Q 947 1113 1208 752 
Q 1469 391 1925 391 
Q 2381 391 2643 752 
Q 2906 1113 2906 1747 
Q 2906 2381 2643 2742 
Q 2381 3103 1925 3103 
Q 1469 3103 1208 2742 
Q 947 2381 947 1747 
z
M 2906 525 
Q 2725 213 2448 61 
Q 2172 -91 1784 -91 
Q 1150 -91 751 415 
Q 353 922 353 1747 
Q 353 2572 751 3078 
Q 1150 3584 1784 3584 
Q 2172 3584 2448 3432 
Q 2725 3281 2906 2969 
L 2906 3500 
L 3481 3500 
L 3481 -1331 
L 2906 -1331 
L 2906 525 
z
" transform="scale(0.015625)"/>
     </defs>
     <use xlink:href="#DejaVuSans-44"/>
     <use xlink:href="#DejaVuSans-69" transform="translate(77.001953 0)"/>
     <use xlink:href="#DejaVuSans-73" transform="translate(104.785156 0)"/>
     <use xlink:href="#DejaVuSans-65" transform="translate(156.884766 0)"/>
     <use xlink:href="#DejaVuSans-f1" transform="translate(218.408203 0)"/>
     <use xlink:href="#DejaVuSans-6f" transform="translate(281.787109 0)"/>
     <use xlink:href="#DejaVuSans-20" transform="translate(342.96875 0)"/>
     <use xlink:href="#DejaVuSans-6c" transform="translate(374.755859 0)"/>
     <use xlink:href="#DejaVuSans-65" transform="translate(402.539062 0)"/>
     <use xlink:href="#DejaVuSans-61" transform="translate(464.0625 0)"/>
     <use xlink:href="#DejaVuSans-64" transform="translate(525.341797 0)"/>
     <use xlink:href="#DejaVuSans-3a" transform="translate(588.818359 0)"/>
     <use xlink:href="#DejaVuSans-20" transform="translate(622.509766 0)"/>
     <use xlink:href="#DejaVuSans-65" transform="translate(654.296875 0)"/>
     <use xlink:href="#DejaVuSans-6c" transform="translate(715.820312 0)"/>
     <use xlink:href="#DejaVuSans-20" transform="translate(743.603516 0)"/>
     <use xlink:href="#DejaVuSans-63" transform="translate(775.390625 0)"/>
     <use xlink:href="#DejaVuSans-65" transform="translate(830.371094 0)"/>
     <use xlink:href="#DejaVuSans-72" transform="translate(891.894531 0)"/>
     <use xlink:href="#DejaVuSans-6f" transform="translate(930.757812 0)"/>
     <use xlink:href="#DejaVuSans-20" transform="translate(991.939453 0)"/>
     <use xlink:href="#DejaVuSans-61" transform="translate(1023.726562 0)"/>
     <use xlink:href="#DejaVuSans-74" transform="translate(1085.005859 0)"/>
     <use xlink:href="#DejaVuSans-72" transform="translate(1124.214844 0)"/>
     <use xlink:href="#DejaVuSans-61" transform="translate(1165.328125 0)"/>
     <use xlink:href="#DejaVuSans-65" transform="translate(1226.607422 0)"/>
     <use xlink:href="#DejaVuSans-20" transform="translate(1288.130859 0)"/>
     <use xlink:href="#DejaVuSans-65" transform="translate(1319.917969 0)"/>
     <use xlink:href="#DejaVuSans-6c" transform="translate(1381.441406 0)"/>
     <use xlink:href="#DejaVuSans-20" transform="translate(1409.224609 0)"/>
     <use xlink:href="#DejaVuSans-6c" transform="translate(1441.011719 0)"/>
     <use xlink:href="#DejaVuSans-75" transform="translate(1468.794922 0)"/>
     <use xlink:href="#DejaVuSans-67" transform="translate(1532.173828 0)"/>
     <use xlink:href="#DejaVuSans-61" transform="translate(1595.650391 0)"/>
     <use xlink:href="#DejaVuSans-72" transform="translate(1656.929688 0)"/>
     <use xlink:href="#DejaVuSans-20" transform="translate(1698.042969 0)"/>
     <use xlink:href="#DejaVuSans-61" transform="translate(1729.830078 0)"/>
     <use xlink:href="#DejaVuSans-20" transform="translate(1791.109375 0)"/>
     <use xlink:href="#DejaVuSans-6c" transform="translate(1822.896484 0)"/>
     <use xlink:href="#DejaVuSans-61" transform="translate(1850.679688 0)"/>
     <use xlink:href="#DejaVuSans-20" transform="translate(1911.958984 0)"/>
     <use xlink:href="#DejaVuSans-69" transform="translate(1943.746094 0)"/>
     <use xlink:href="#DejaVuSans-7a" transform="translate(1971.529297 0)"/>
     <use xlink:href="#DejaVuSans-71" transform="translate(2024.019531 0)"/>
     <use xlink:href="#DejaVuSans-75" transform="translate(2087.496094 0)"/>
     <use xlink:href="#DejaVuSans-69" transform="translate(2150.875 0)"/>
     <use xlink:href="#DejaVuSans-65" transform="translate(2178.658203 0)"/>
     <use xlink:href="#DejaVuSans-72" transform="translate(2240.181641 0)"/>
     <use xlink:href="#DejaVuSans-64" transform="translate(2279.544922 0)"/>
     <use xlink:href="#DejaVuSans-61" transform="translate(2343.021484 0)"/>
    </g>
   </g>
  </g>
 </g>
 <defs>
  <clipPath id="p2ef85df717">
   <rect x="48.982813" y="22.5225" width="323.64" height="298.744615"/>
  </clipPath>
 </defs>
</svg>
